# xmcd
#
# Track frame offsets:
#	150
#	13319
#	28555
#	41999
#	55674
#	72988
#	88186
#	105013
#	124471
#	138100
#	158600
#	172709
#	194792
#
# Disc length: 2830 seconds
#
# Revision: 14
# Processed by: cddbd v1.5.2PL0 Copyright (c) Steve Scherf et al.
# Submitted via: EasyCDDAExtractor 15.3.0.1
#
DISCID=ab0b0c0d
DTITLE=P!nk - Hurts 2B Human
DYEAR=2019
DGENRE=Pop
TTITLE0=Hustle
TTITLE1=(Hey Why) Miss You Sometime
TTITLE2=Walk Me Home
TTITLE3=My Attic
TTITLE4=90 Days (Featuring Wrabel)
TTITLE5=Hurts 2B Human (Featuring Khalid)
TTITLE6=Can We Pretend (Featuring Cash Cash)
TTITLE7=Courage
TTITLE8=Happy
TTITLE9=We Could Have It All
TTITLE10=Love Me Anyway (Featuring Chris Stapleton)
TTITLE11=Circle Game
TTITLE12=The Last Song Of Your Life
EXTD=
EXTT0=
EXTT1=
EXTT2=
EXTT3=
EXTT4=
EXTT5=
EXTT6=
EXTT7=
EXTT8=
EXTT9=
EXTT10=
EXTT11=
EXTT12=
PLAYORDER=
